<svg width="64" height="64" viewBox="0 0 64 64" fill="none" xmlns="http://www.w3.org/2000/svg">
  <defs>
    <linearGradient id="logoGradient" x1="0%" y1="0%" x2="100%" y2="100%">
      <stop offset="0%" style="stop-color:#0ea5e9;stop-opacity:1" />
      <stop offset="100%" style="stop-color:#ec4899;stop-opacity:1" />
    </linearGradient>
  </defs>
  
  <!-- Background Circle -->
  <circle cx="32" cy="32" r="30" fill="url(#logoGradient)"/>
  
  <!-- Two People Silhouettes -->
  <!-- Left Person -->
  <circle cx="20" cy="26" r="5" fill="white"/>
  <path d="M15 34 C15 32, 17 30, 19 30 L21 30 C23 30, 25 32, 25 34 L25 40 C25 42, 23 44, 21 44 L19 44 C17 44, 15 42, 15 40 Z" 
        fill="white"/>
  
  <!-- Right Person -->
  <circle cx="44" cy="26" r="5" fill="white" opacity="0.8"/>
  <path d="M39 34 C39 32, 41 30, 43 30 L45 30 C47 30, 49 32, 49 34 L49 40 C49 42, 47 44, 45 44 L43 44 C41 44, 39 42, 39 40 Z" 
        fill="white" opacity="0.8"/>
  
  <!-- Connection Line (Bond) -->
  <path d="M25 30 Q32 20, 39 30" stroke="white" stroke-width="3" fill="none"/>
  
  <!-- Heart in Center -->
  <path d="M32 18 C32 18, 30 16, 28 16 C26 16, 26 18, 26 20 C26 22, 28 24, 32 26 C36 24, 38 22, 38 20 C38 18, 38 16, 36 16 C34 16, 32 18, 32 18 Z" 
        fill="#ec4899"/>
</svg>
